<svg width="213" height="31" viewBox="0 0 213 31" fill="none" xmlns="http://www.w3.org/2000/svg">
<path d="M36.548 25.476C37.172 25.476 37.772 25.14 38.348 24.468L38.888 24.9C38.816 24.996 38.72 25.116 38.6 25.26C38.48 25.404 38.18 25.596 37.7 25.836C37.244 26.076 36.74 26.196 36.188 26.196C33.5 26.196 32.156 25.032 32.156 22.704C32.156 21.984 32.24 20.916 32.408 19.5C31.256 19.86 30.224 20.04 29.312 20.04C27.704 20.04 26.096 19.548 24.488 18.564C23.552 20.172 22.676 21.552 21.86 22.704C21.044 23.832 20.096 24.936 19.016 26.016C16.784 28.2 14.084 29.292 10.916 29.292C7.772 29.292 5.264 28.284 3.392 26.268C1.736 24.42 0.908 22.176 0.908 19.536C0.908 16.872 1.76 14.508 3.464 12.444C5.168 10.38 7.376 9.348 10.088 9.348C12.8 9.348 14.864 10.152 16.28 11.76C16.616 12.192 16.856 12.516 17 12.732C18.296 13.284 19.772 14.196 21.428 15.468C22.676 16.476 23.6 17.172 24.2 17.556C24.536 16.932 24.992 16.092 25.568 15.036C26.168 13.98 26.624 13.176 26.936 12.624C27.248 12.072 27.716 11.292 28.34 10.284C28.964 9.276 29.468 8.52 29.852 8.016C30.26 7.488 30.788 6.84 31.436 6.072C32.108 5.28 32.72 4.692 33.272 4.308C34.928 3.132 36.32 2.448 37.448 2.256C38.072 2.16 38.6 2.112 39.032 2.112C39.464 2.112 39.944 2.124 40.472 2.148C41 2.148 41.744 2.28 42.704 2.544L42.524 3.228C41.948 3.06 41.336 2.94 40.688 2.868C38.288 12.3 36.908 19.836 36.548 25.476ZM18.152 16.908C18.152 18.684 17.636 20.256 16.604 21.624C15.596 22.992 14.228 23.676 12.5 23.676C11.372 23.676 10.448 23.34 9.728 22.668C9.032 21.996 8.684 21.3 8.684 20.58C8.684 19.86 8.792 19.272 9.008 18.816C9.224 18.336 9.464 17.976 9.728 17.736C10.016 17.496 10.328 17.304 10.664 17.16C11.12 16.92 11.48 16.8 11.744 16.8L11.816 17.52C11.216 17.52 10.664 17.808 10.16 18.384C9.656 18.96 9.404 19.608 9.404 20.328C9.404 21.048 9.68 21.672 10.232 22.2C10.808 22.704 11.564 22.956 12.5 22.956C14.036 22.956 15.248 22.356 16.136 21.156C17.024 19.956 17.468 18.624 17.468 17.16C17.468 15.696 17.168 14.424 16.568 13.344C15.248 12.84 13.94 12.588 12.644 12.588C10.148 12.588 8.384 13.752 7.352 16.08L6.668 15.864C6.932 15.264 7.352 14.616 7.928 13.92C9.056 12.552 10.628 11.868 12.644 11.868C13.724 11.868 14.792 12.024 15.848 12.336L15.776 12.228C14.456 10.788 12.548 10.068 10.052 10.068C7.58 10.068 5.552 11.028 3.968 12.948C2.408 14.868 1.628 17.076 1.628 19.572C1.628 22.044 2.396 24.108 3.932 25.764C5.66 27.636 8.072 28.572 11.168 28.572C14 28.572 16.472 27.504 18.584 25.368C19.64 24.336 20.552 23.268 21.32 22.164C22.112 21.06 22.964 19.728 23.876 18.168C23.06 17.64 22.064 16.92 20.888 16.008C19.736 15.072 18.62 14.328 17.54 13.776C17.948 14.784 18.152 15.828 18.152 16.908ZM24.848 17.952C26.384 18.864 27.788 19.32 29.06 19.32C30.356 19.32 31.508 19.116 32.516 18.708C33.092 14.652 34.172 9.612 35.756 3.588C33.836 4.5 32.072 6.12 30.464 8.448C29.288 10.128 27.872 12.468 26.216 15.468L24.848 17.952ZM54.3469 27.924C55.2109 27.924 55.9549 27.588 56.5789 26.916L57.0829 27.348C56.5069 28.164 55.5949 28.572 54.3469 28.572C53.8189 28.572 53.2789 28.512 52.7269 28.392C51.0949 29.88 49.0069 30.624 46.4629 30.624C44.9509 30.624 43.7749 30.36 42.9349 29.832C42.1189 29.328 41.7109 28.656 41.7109 27.816C41.7109 27 41.9629 26.34 42.4669 25.836C42.9949 25.356 43.9189 25.116 45.2389 25.116C46.5589 25.116 48.2989 25.656 50.4589 26.736L51.5749 20.76C50.4949 22.752 49.1029 23.748 47.3989 23.748C44.1349 23.748 42.5029 22.14 42.5029 18.924C42.5029 16.236 43.1749 14.076 44.5189 12.444C45.8869 10.812 47.6269 9.996 49.7389 9.996C50.9629 9.996 51.9109 10.368 52.5829 11.112C52.7749 11.328 52.9669 11.652 53.1589 12.084L53.4829 10.32C55.2589 10.32 56.5549 10.248 57.3709 10.104L57.8389 9.996L55.4629 23.28C55.1029 25.152 54.3829 26.664 53.3029 27.816C53.6149 27.888 53.9629 27.924 54.3469 27.924ZM46.5709 20.04C46.5709 21.144 46.6789 21.888 46.8949 22.272C47.1109 22.632 47.5189 22.812 48.1189 22.812C48.7189 22.812 49.3309 22.488 49.9549 21.84C50.5789 21.192 51.0229 20.592 51.2869 20.04C51.5749 19.464 51.8149 18.912 52.0069 18.384L52.7629 14.244V13.992C52.7629 11.784 51.7549 10.68 49.7389 10.68C48.9709 10.68 48.2509 11.724 47.5789 13.812C46.9069 15.9 46.5709 17.976 46.5709 20.04ZM46.3189 29.904C48.2389 29.904 49.5349 29.076 50.2069 27.42L49.7029 27.168C49.4149 27.024 49.2349 26.928 49.1629 26.88C49.1149 26.856 48.9589 26.784 48.6949 26.664C48.4309 26.544 48.2389 26.46 48.1189 26.412C47.9989 26.388 47.8069 26.328 47.5429 26.232C47.3029 26.136 47.0989 26.064 46.9309 26.016C46.7629 25.992 46.5709 25.956 46.3549 25.908C45.9949 25.836 45.4669 25.8 44.7709 25.8C44.0749 25.8 43.5109 25.968 43.0789 26.304C42.6709 26.64 42.4669 27.132 42.4669 27.78C42.4669 28.428 42.8149 28.944 43.5109 29.328C44.2069 29.712 45.1429 29.904 46.3189 29.904ZM73.1693 23.604C73.7453 23.604 74.3453 23.268 74.9693 22.596L75.5093 23.028C75.3413 23.364 74.9693 23.664 74.3933 23.928C73.8173 24.192 73.1813 24.324 72.4853 24.324C70.3013 24.324 69.2093 23.34 69.2093 21.372C69.2093 20.532 69.4253 19.032 69.8573 16.872C70.2893 14.712 70.5053 13.296 70.5053 12.624C70.5053 11.592 70.0133 11.076 69.0293 11.076C68.2373 11.076 67.4693 11.592 66.7253 12.624C66.0053 13.656 65.4053 15.072 64.9253 16.872L63.7013 23.604C64.4453 23.532 65.0573 23.196 65.5373 22.596L66.0773 23.028C65.3573 23.892 64.4573 24.324 63.3773 24.324C62.2973 24.324 61.4453 24.048 60.8213 23.496C60.2213 22.944 59.9213 22.224 59.9213 21.336C59.9213 21 60.1133 19.68 60.4973 17.376L61.6853 10.716C60.9653 10.788 60.3653 11.124 59.8853 11.724L59.3453 11.292C60.0653 10.428 60.9653 9.996 62.0453 9.996C63.1493 9.996 64.0013 10.272 64.6013 10.824C65.2013 11.376 65.5013 12.156 65.5013 13.164V13.38C66.4853 11.124 68.0213 9.996 70.1093 9.996C71.5253 9.996 72.6293 10.404 73.4213 11.22C74.2133 12.012 74.6093 13.116 74.6093 14.532C74.6093 15.276 74.3813 16.716 73.9253 18.852C73.4693 20.964 73.2173 22.548 73.1693 23.604ZM84.9781 9.996C88.0261 9.996 89.5501 11.208 89.5501 13.632C89.5501 15.144 88.8301 16.296 87.3901 17.088C85.9741 17.856 83.9461 18.252 81.3061 18.276C81.2581 19.14 81.2341 19.824 81.2341 20.328C81.2341 21.408 81.4741 22.212 81.9541 22.74C82.4581 23.244 83.0821 23.496 83.8261 23.496C84.5701 23.496 85.2421 23.352 85.8421 23.064C86.4661 22.776 86.9581 22.44 87.3181 22.056C87.6781 21.648 87.9901 21.228 88.2541 20.796C88.7341 20.004 88.9741 19.5 88.9741 19.284L89.6221 19.572C89.5501 19.956 89.3341 20.472 88.9741 21.12C88.6141 21.744 88.2181 22.26 87.7861 22.668C87.3541 23.076 86.7181 23.46 85.8781 23.82C85.0381 24.156 84.1021 24.324 83.0701 24.324C81.1261 24.324 79.6501 23.868 78.6421 22.956C77.6581 22.02 77.1661 20.748 77.1661 19.14C77.1661 16.284 77.8741 14.052 79.2901 12.444C80.7061 10.812 82.6021 9.996 84.9781 9.996ZM88.6501 13.632C88.6501 12.84 88.4101 12.192 87.9301 11.688C87.4741 11.16 86.7781 10.896 85.8421 10.896C84.9301 10.896 84.0301 11.448 83.1421 12.552C82.2781 13.656 81.7021 15.288 81.4141 17.448C86.2381 17.424 88.6501 16.152 88.6501 13.632ZM94.8947 23.388C97.2707 23.388 98.4587 21.636 98.4587 18.132C98.4587 17.268 98.3267 16.248 98.0627 15.072C97.8227 13.896 97.6787 13.164 97.6307 12.876C96.1667 14.388 94.5227 15.3 92.6987 15.612V14.748C94.4267 14.364 96.0467 13.38 97.5587 11.796V11.652C97.5587 11.076 97.6427 10.512 97.8107 9.96C97.9787 9.408 98.1467 9 98.3147 8.736L98.5667 8.34H99.4307C99.4307 9.396 99.5987 10.368 99.9347 11.256C100.271 12.12 100.643 12.828 101.051 13.38C101.459 13.908 101.831 14.616 102.167 15.504C102.503 16.368 102.671 17.328 102.671 18.384C102.671 20.088 102.023 21.504 100.727 22.632C99.4547 23.76 97.9187 24.324 96.1187 24.324C94.3187 24.324 92.9507 23.916 92.0147 23.1C91.1027 22.284 90.6467 21.348 90.6467 20.292C90.6467 19.212 90.9107 18.444 91.4387 17.988C91.9667 17.508 92.5907 17.268 93.3107 17.268C94.0307 17.268 94.6187 17.508 95.0747 17.988C95.5547 18.444 95.7947 19.044 95.7947 19.788C95.7947 20.508 95.5667 21.12 95.1107 21.624C94.6547 22.128 94.0667 22.38 93.3467 22.38C93.0347 22.38 92.7107 22.332 92.3747 22.236C92.9027 23.004 93.7427 23.388 94.8947 23.388ZM105.593 23.532C105.089 23.028 104.837 22.416 104.837 21.696C104.837 20.976 105.089 20.364 105.593 19.86C106.097 19.332 106.709 19.068 107.429 19.068C108.149 19.068 108.761 19.332 109.265 19.86C109.793 20.364 110.057 20.976 110.057 21.696C110.057 22.416 109.793 23.028 109.265 23.532C108.761 24.036 108.149 24.288 107.429 24.288C106.709 24.288 106.097 24.036 105.593 23.532ZM119.86 24.324C118.348 24.324 117.244 23.82 116.548 22.812L113.524 24.972H112.84L116.872 1.392C116.152 1.464 115.552 1.8 115.072 2.4L114.532 1.968C115.252 1.104 116.152 0.672 117.232 0.672C118.336 0.672 119.188 0.948 119.788 1.5C120.388 2.052 120.688 2.832 120.688 3.84C120.688 4.032 120.664 4.344 120.616 4.776C120.232 6.912 119.764 9.48 119.212 12.48C120.22 10.848 121.528 10.032 123.136 10.032C124.744 10.032 125.98 10.5 126.844 11.436C127.708 12.348 128.14 13.608 128.14 15.216C128.14 18.048 127.372 20.28 125.836 21.912C124.3 23.52 122.308 24.324 119.86 24.324ZM119.608 23.352C120.928 23.352 121.996 22.44 122.812 20.616C123.652 18.768 124.072 16.476 124.072 13.74C124.072 12.636 123.952 11.88 123.712 11.472C123.496 11.064 123.088 10.86 122.488 10.86C121.888 10.86 121.264 11.22 120.616 11.94C119.992 12.66 119.536 13.344 119.248 13.992C118.96 14.616 118.816 14.976 118.816 15.072H118.744C118.144 18.216 117.7 20.592 117.412 22.2C117.82 22.968 118.552 23.352 119.608 23.352ZM143.145 17.448C142.497 16.944 141.921 16.176 141.417 15.144C140.913 14.112 140.661 12.948 140.661 11.652C140.661 10.356 140.865 9.156 141.273 8.052C141.681 6.948 142.281 5.952 143.073 5.064C143.889 4.152 144.969 3.432 146.313 2.904C147.657 2.352 149.085 2.076 150.597 2.076C152.109 2.076 153.477 2.196 154.701 2.436C155.925 2.652 156.885 2.892 157.581 3.156C158.277 3.396 158.889 3.636 159.417 3.876C159.969 4.092 160.413 4.272 160.749 4.416C161.085 4.536 161.289 4.608 161.361 4.632C161.433 4.656 161.625 4.728 161.937 4.848C162.249 4.968 162.453 5.04 162.549 5.064C162.669 5.088 162.861 5.148 163.125 5.244C163.413 5.34 163.629 5.4 163.773 5.424C163.941 5.448 164.157 5.496 164.421 5.568C164.685 5.616 164.913 5.652 165.105 5.676C165.297 5.676 165.525 5.688 165.789 5.712C166.053 5.736 166.305 5.748 166.545 5.748C167.721 5.748 168.741 5.556 169.605 5.172C170.493 4.764 171.129 4.32 171.513 3.84C171.921 3.36 172.245 2.808 172.485 2.184C172.773 1.416 172.917 0.719999 172.917 0.0959988H173.709C173.709 0.671999 173.553 1.38 173.241 2.22C172.953 3.036 172.581 3.732 172.125 4.308C171.693 4.86 170.985 5.364 170.001 5.82C169.017 6.276 167.841 6.504 166.473 6.504C165.129 6.504 163.773 6.288 162.405 5.856C160.773 8.16 159.057 12.804 157.257 19.788C156.369 23.292 155.085 25.836 153.405 27.42C151.749 29.028 149.337 29.832 146.169 29.832C143.025 29.832 140.673 28.872 139.113 26.952C137.745 25.248 137.061 23.268 137.061 21.012C137.061 20.724 137.073 20.436 137.097 20.148H137.925V20.652C137.925 22.308 138.369 23.928 139.257 25.512C139.641 26.184 140.097 26.76 140.625 27.24C141.177 27.744 141.909 28.164 142.821 28.5C143.733 28.836 144.753 29.004 145.881 29.004C147.753 29.004 149.229 28.248 150.309 26.736C151.413 25.224 152.469 22.308 153.477 17.988C154.509 13.644 155.553 10.548 156.609 8.7C157.689 6.828 159.249 5.748 161.289 5.46C160.665 5.22 160.005 4.956 159.309 4.668C158.613 4.356 157.941 4.092 157.293 3.876C156.669 3.636 155.757 3.408 154.557 3.192C153.381 2.952 152.061 2.832 150.597 2.832C149.133 2.832 147.765 3.096 146.493 3.624C145.245 4.152 144.273 4.848 143.577 5.712C142.185 7.392 141.489 9.336 141.489 11.544C141.489 12.792 141.717 13.896 142.173 14.856C142.629 15.792 143.181 16.488 143.829 16.944C145.149 17.832 146.349 18.336 147.429 18.456L148.113 18.528L147.897 19.32C147.297 19.32 146.517 19.14 145.557 18.78C144.621 18.396 143.817 17.952 143.145 17.448ZM171.307 24.324C169.459 24.324 168.055 23.868 167.095 22.956C166.135 22.02 165.655 20.856 165.655 19.464C165.655 18.048 165.775 16.848 166.015 15.864C166.279 14.856 166.699 13.896 167.275 12.984C167.851 12.048 168.715 11.316 169.867 10.788C171.043 10.26 172.495 9.996 174.223 9.996C175.975 9.996 177.331 10.464 178.291 11.4C179.275 12.312 179.767 13.572 179.767 15.18C179.767 17.916 179.035 20.124 177.571 21.804C176.131 23.484 174.043 24.324 171.307 24.324ZM169.723 20.616C169.723 22.536 170.275 23.496 171.379 23.496C172.507 23.496 173.503 22.536 174.367 20.616C175.255 18.672 175.699 16.368 175.699 13.704C175.699 11.688 175.147 10.68 174.043 10.68C172.963 10.68 171.967 11.604 171.055 13.452C170.167 15.276 169.723 17.664 169.723 20.616ZM183.778 10.716C183.202 10.716 182.602 11.052 181.978 11.724L181.438 11.292C181.606 10.956 181.978 10.656 182.554 10.392C183.13 10.128 183.766 9.996 184.462 9.996C186.646 9.996 187.738 10.98 187.738 12.948C187.738 13.788 187.522 15.288 187.09 17.448C186.658 19.608 186.442 21.024 186.442 21.696C186.442 22.728 186.934 23.244 187.918 23.244C188.614 23.244 189.286 22.836 189.934 22.02C190.606 21.204 191.182 20.076 191.662 18.636L193.174 10.32C194.95 10.32 196.246 10.248 197.062 10.104L197.53 9.996L195.118 23.604C195.838 23.532 196.438 23.196 196.918 22.596L197.458 23.028C196.738 23.892 195.838 24.324 194.758 24.324C193.678 24.324 192.838 24.06 192.238 23.532C191.638 23.004 191.326 22.26 191.302 21.3C190.294 23.316 188.806 24.324 186.838 24.324C185.422 24.324 184.318 23.928 183.526 23.136C182.734 22.32 182.338 21.204 182.338 19.788C182.338 19.044 182.566 17.616 183.022 15.504C183.478 13.368 183.73 11.772 183.778 10.716ZM199.727 11.292C200.447 10.428 201.347 9.996 202.427 9.996C203.531 9.996 204.383 10.272 204.983 10.824C205.583 11.376 205.883 12.156 205.883 13.164V13.38C206.963 11.124 208.367 9.996 210.095 9.996C211.943 9.996 212.867 10.956 212.867 12.876C212.867 13.668 212.603 14.508 212.075 15.396C211.547 16.284 211.019 17.136 210.491 17.952C209.963 18.744 209.699 19.452 209.699 20.076H208.835C208.835 19.188 209.351 17.988 210.383 16.476C211.415 14.964 211.931 13.8 211.931 12.984C211.931 12.144 211.763 11.58 211.427 11.292C211.115 10.98 210.635 10.824 209.987 10.824C209.363 10.824 208.739 11.1 208.115 11.652C207.515 12.204 207.011 12.9 206.603 13.74C205.955 14.988 205.523 16.008 205.307 16.8V16.836L204.011 24H199.691L202.067 10.716C201.347 10.788 200.747 11.124 200.267 11.724L199.727 11.292Z" fill="white"/>
</svg>
