<svg width="284" height="41" viewBox="0 0 284 41" fill="none" xmlns="http://www.w3.org/2000/svg">
<path d="M48.064 33.968C48.896 33.968 49.696 33.52 50.464 32.624L51.184 33.2C51.088 33.328 50.96 33.488 50.8 33.68C50.64 33.872 50.24 34.128 49.6 34.448C48.992 34.768 48.32 34.928 47.584 34.928C44 34.928 42.208 33.376 42.208 30.272C42.208 29.312 42.32 27.888 42.544 26C41.008 26.48 39.632 26.72 38.416 26.72C36.272 26.72 34.128 26.064 31.984 24.752C30.736 26.896 29.568 28.736 28.48 30.272C27.392 31.776 26.128 33.248 24.688 34.688C21.712 37.6 18.112 39.056 13.888 39.056C9.696 39.056 6.352 37.712 3.856 35.024C1.648 32.56 0.544 29.568 0.544 26.048C0.544 22.496 1.68 19.344 3.952 16.592C6.224 13.84 9.168 12.464 12.784 12.464C16.4 12.464 19.152 13.536 21.04 15.68C21.488 16.256 21.808 16.688 22 16.976C23.728 17.712 25.696 18.928 27.904 20.624C29.568 21.968 30.8 22.896 31.6 23.408C32.048 22.576 32.656 21.456 33.424 20.048C34.224 18.64 34.832 17.568 35.248 16.832C35.664 16.096 36.288 15.056 37.12 13.712C37.952 12.368 38.624 11.36 39.136 10.688C39.68 9.984 40.384 9.12 41.248 8.096C42.144 7.04 42.96 6.256 43.696 5.744C45.904 4.176 47.76 3.264 49.264 3.008C50.096 2.88 50.8 2.816 51.376 2.816C51.952 2.816 52.592 2.832 53.296 2.864C54 2.864 54.992 3.04 56.272 3.392L56.032 4.304C55.264 4.08 54.448 3.92 53.584 3.824C50.384 16.4 48.544 26.448 48.064 33.968ZM23.536 22.544C23.536 24.912 22.848 27.008 21.472 28.832C20.128 30.656 18.304 31.568 16 31.568C14.496 31.568 13.264 31.12 12.304 30.224C11.376 29.328 10.912 28.4 10.912 27.44C10.912 26.48 11.056 25.696 11.344 25.088C11.632 24.448 11.952 23.968 12.304 23.648C12.688 23.328 13.104 23.072 13.552 22.88C14.16 22.56 14.64 22.4 14.992 22.4L15.088 23.36C14.288 23.36 13.552 23.744 12.88 24.512C12.208 25.28 11.872 26.144 11.872 27.104C11.872 28.064 12.24 28.896 12.976 29.6C13.744 30.272 14.752 30.608 16 30.608C18.048 30.608 19.664 29.808 20.848 28.208C22.032 26.608 22.624 24.832 22.624 22.88C22.624 20.928 22.224 19.232 21.424 17.792C19.664 17.12 17.92 16.784 16.192 16.784C12.864 16.784 10.512 18.336 9.136 21.44L8.224 21.152C8.576 20.352 9.136 19.488 9.904 18.56C11.408 16.736 13.504 15.824 16.192 15.824C17.632 15.824 19.056 16.032 20.464 16.448L20.368 16.304C18.608 14.384 16.064 13.424 12.736 13.424C9.44 13.424 6.736 14.704 4.624 17.264C2.544 19.824 1.504 22.768 1.504 26.096C1.504 29.392 2.528 32.144 4.576 34.352C6.88 36.848 10.096 38.096 14.224 38.096C18 38.096 21.296 36.672 24.112 33.824C25.52 32.448 26.736 31.024 27.76 29.552C28.816 28.08 29.952 26.304 31.168 24.224C30.08 23.52 28.752 22.56 27.184 21.344C25.648 20.096 24.16 19.104 22.72 18.368C23.264 19.712 23.536 21.104 23.536 22.544ZM32.464 23.936C34.512 25.152 36.384 25.76 38.08 25.76C39.808 25.76 41.344 25.488 42.688 24.944C43.456 19.536 44.896 12.816 47.008 4.784C44.448 6 42.096 8.16 39.952 11.264C38.384 13.504 36.496 16.624 34.288 20.624L32.464 23.936ZM71.7959 37.232C72.9479 37.232 73.9399 36.784 74.7719 35.888L75.4439 36.464C74.6759 37.552 73.4599 38.096 71.7959 38.096C71.0919 38.096 70.3719 38.016 69.6359 37.856C67.4599 39.84 64.6759 40.832 61.2839 40.832C59.2679 40.832 57.6999 40.48 56.5799 39.776C55.4919 39.104 54.9479 38.208 54.9479 37.088C54.9479 36 55.2839 35.12 55.9559 34.448C56.6599 33.808 57.8919 33.488 59.6519 33.488C61.4119 33.488 63.7319 34.208 66.6119 35.648L68.0999 27.68C66.6599 30.336 64.8039 31.664 62.5319 31.664C58.1799 31.664 56.0039 29.52 56.0039 25.232C56.0039 21.648 56.8999 18.768 58.6919 16.592C60.5159 14.416 62.8359 13.328 65.6519 13.328C67.2839 13.328 68.5479 13.824 69.4439 14.816C69.6999 15.104 69.9559 15.536 70.2119 16.112L70.6439 13.76C73.0119 13.76 74.7399 13.664 75.8279 13.472L76.4519 13.328L73.2839 31.04C72.8039 33.536 71.8439 35.552 70.4039 37.088C70.8199 37.184 71.2839 37.232 71.7959 37.232ZM61.4279 26.72C61.4279 28.192 61.5719 29.184 61.8599 29.696C62.1479 30.176 62.6919 30.416 63.4919 30.416C64.2919 30.416 65.1079 29.984 65.9399 29.12C66.7719 28.256 67.3639 27.456 67.7159 26.72C68.0999 25.952 68.4199 25.216 68.6759 24.512L69.6839 18.992V18.656C69.6839 15.712 68.3399 14.24 65.6519 14.24C64.6279 14.24 63.6679 15.632 62.7719 18.416C61.8759 21.2 61.4279 23.968 61.4279 26.72ZM61.0919 39.872C63.6519 39.872 65.3799 38.768 66.2759 36.56L65.6039 36.224C65.2199 36.032 64.9799 35.904 64.8839 35.84C64.8199 35.808 64.6119 35.712 64.2599 35.552C63.9079 35.392 63.6519 35.28 63.4919 35.216C63.3319 35.184 63.0759 35.104 62.7239 34.976C62.4039 34.848 62.1319 34.752 61.9079 34.688C61.6839 34.656 61.4279 34.608 61.1399 34.544C60.6599 34.448 59.9559 34.4 59.0279 34.4C58.0999 34.4 57.3479 34.624 56.7719 35.072C56.2279 35.52 55.9559 36.176 55.9559 37.04C55.9559 37.904 56.4199 38.592 57.3479 39.104C58.2759 39.616 59.5239 39.872 61.0919 39.872ZM96.8924 31.472C97.6604 31.472 98.4604 31.024 99.2924 30.128L100.012 30.704C99.7884 31.152 99.2924 31.552 98.5244 31.904C97.7564 32.256 96.9084 32.432 95.9804 32.432C93.0684 32.432 91.6124 31.12 91.6124 28.496C91.6124 27.376 91.9004 25.376 92.4764 22.496C93.0524 19.616 93.3404 17.728 93.3404 16.832C93.3404 15.456 92.6844 14.768 91.3724 14.768C90.3164 14.768 89.2924 15.456 88.3004 16.832C87.3404 18.208 86.5404 20.096 85.9004 22.496L84.2684 31.472C85.2604 31.376 86.0764 30.928 86.7164 30.128L87.4364 30.704C86.4764 31.856 85.2764 32.432 83.8364 32.432C82.3964 32.432 81.2604 32.064 80.4284 31.328C79.6284 30.592 79.2284 29.632 79.2284 28.448C79.2284 28 79.4844 26.24 79.9964 23.168L81.5804 14.288C80.6204 14.384 79.8204 14.832 79.1804 15.632L78.4604 15.056C79.4204 13.904 80.6204 13.328 82.0604 13.328C83.5324 13.328 84.6684 13.696 85.4684 14.432C86.2684 15.168 86.6684 16.208 86.6684 17.552V17.84C87.9804 14.832 90.0284 13.328 92.8124 13.328C94.7004 13.328 96.1724 13.872 97.2284 14.96C98.2844 16.016 98.8124 17.488 98.8124 19.376C98.8124 20.368 98.5084 22.288 97.9004 25.136C97.2924 27.952 96.9564 30.064 96.8924 31.472ZM112.638 13.328C116.702 13.328 118.734 14.944 118.734 18.176C118.734 20.192 117.774 21.728 115.854 22.784C113.966 23.808 111.262 24.336 107.742 24.368C107.678 25.52 107.646 26.432 107.646 27.104C107.646 28.544 107.966 29.616 108.606 30.32C109.278 30.992 110.11 31.328 111.102 31.328C112.094 31.328 112.99 31.136 113.79 30.752C114.622 30.368 115.278 29.92 115.758 29.408C116.238 28.864 116.654 28.304 117.006 27.728C117.646 26.672 117.966 26 117.966 25.712L118.83 26.096C118.734 26.608 118.446 27.296 117.966 28.16C117.486 28.992 116.958 29.68 116.382 30.224C115.806 30.768 114.958 31.28 113.838 31.76C112.718 32.208 111.47 32.432 110.094 32.432C107.502 32.432 105.534 31.824 104.19 30.608C102.878 29.36 102.222 27.664 102.222 25.52C102.222 21.712 103.166 18.736 105.054 16.592C106.942 14.416 109.47 13.328 112.638 13.328ZM117.534 18.176C117.534 17.12 117.214 16.256 116.574 15.584C115.966 14.88 115.038 14.528 113.79 14.528C112.574 14.528 111.374 15.264 110.19 16.736C109.038 18.208 108.27 20.384 107.886 23.264C114.318 23.232 117.534 21.536 117.534 18.176ZM125.86 31.184C129.028 31.184 130.612 28.848 130.612 24.176C130.612 23.024 130.436 21.664 130.084 20.096C129.764 18.528 129.572 17.552 129.508 17.168C127.556 19.184 125.364 20.4 122.932 20.816V19.664C125.236 19.152 127.396 17.84 129.412 15.728V15.536C129.412 14.768 129.524 14.016 129.748 13.28C129.972 12.544 130.196 12 130.42 11.648L130.756 11.12H131.908C131.908 12.528 132.132 13.824 132.58 15.008C133.028 16.16 133.524 17.104 134.068 17.84C134.612 18.544 135.108 19.488 135.556 20.672C136.004 21.824 136.228 23.104 136.228 24.512C136.228 26.784 135.364 28.672 133.636 30.176C131.94 31.68 129.892 32.432 127.492 32.432C125.092 32.432 123.268 31.888 122.02 30.8C120.804 29.712 120.196 28.464 120.196 27.056C120.196 25.616 120.548 24.592 121.252 23.984C121.956 23.344 122.788 23.024 123.748 23.024C124.708 23.024 125.492 23.344 126.1 23.984C126.74 24.592 127.06 25.392 127.06 26.384C127.06 27.344 126.756 28.16 126.148 28.832C125.54 29.504 124.756 29.84 123.796 29.84C123.38 29.84 122.948 29.776 122.5 29.648C123.204 30.672 124.324 31.184 125.86 31.184ZM140.124 31.376C139.452 30.704 139.116 29.888 139.116 28.928C139.116 27.968 139.452 27.152 140.124 26.48C140.796 25.776 141.612 25.424 142.572 25.424C143.532 25.424 144.348 25.776 145.02 26.48C145.724 27.152 146.076 27.968 146.076 28.928C146.076 29.888 145.724 30.704 145.02 31.376C144.348 32.048 143.532 32.384 142.572 32.384C141.612 32.384 140.796 32.048 140.124 31.376ZM159.146 32.432C157.13 32.432 155.658 31.76 154.73 30.416L150.698 33.296H149.786L155.162 1.856C154.202 1.952 153.402 2.4 152.762 3.2L152.042 2.624C153.002 1.472 154.202 0.896 155.642 0.896C157.114 0.896 158.25 1.264 159.05 2C159.85 2.736 160.25 3.776 160.25 5.12C160.25 5.376 160.218 5.792 160.154 6.368C159.642 9.216 159.018 12.64 158.282 16.64C159.626 14.464 161.37 13.376 163.514 13.376C165.658 13.376 167.306 14 168.458 15.248C169.61 16.464 170.186 18.144 170.186 20.288C170.186 24.064 169.162 27.04 167.114 29.216C165.066 31.36 162.41 32.432 159.146 32.432ZM158.81 31.136C160.57 31.136 161.994 29.92 163.082 27.488C164.202 25.024 164.762 21.968 164.762 18.32C164.762 16.848 164.602 15.84 164.282 15.296C163.994 14.752 163.45 14.48 162.65 14.48C161.85 14.48 161.018 14.96 160.154 15.92C159.322 16.88 158.714 17.792 158.33 18.656C157.946 19.488 157.754 19.968 157.754 20.096H157.658C156.858 24.288 156.266 27.456 155.882 29.6C156.426 30.624 157.402 31.136 158.81 31.136ZM190.194 23.264C189.33 22.592 188.562 21.568 187.89 20.192C187.218 18.816 186.882 17.264 186.882 15.536C186.882 13.808 187.154 12.208 187.698 10.736C188.242 9.264 189.042 7.936 190.098 6.752C191.186 5.536 192.626 4.576 194.418 3.872C196.21 3.136 198.114 2.768 200.13 2.768C202.146 2.768 203.97 2.928 205.602 3.248C207.234 3.536 208.514 3.856 209.442 4.208C210.37 4.528 211.186 4.848 211.89 5.168C212.626 5.456 213.218 5.696 213.666 5.888C214.114 6.048 214.386 6.144 214.482 6.176C214.578 6.208 214.834 6.304 215.25 6.464C215.666 6.624 215.938 6.72 216.066 6.752C216.226 6.784 216.482 6.864 216.834 6.992C217.218 7.12 217.506 7.2 217.698 7.232C217.922 7.264 218.21 7.328 218.562 7.424C218.914 7.488 219.218 7.536 219.474 7.568C219.73 7.568 220.034 7.584 220.386 7.616C220.738 7.648 221.074 7.664 221.394 7.664C222.962 7.664 224.322 7.408 225.474 6.896C226.658 6.352 227.506 5.76 228.018 5.12C228.562 4.48 228.994 3.744 229.314 2.912C229.698 1.888 229.89 0.959999 229.89 0.127998H230.946C230.946 0.895998 230.738 1.84 230.322 2.96C229.938 4.048 229.442 4.976 228.834 5.744C228.258 6.48 227.314 7.152 226.002 7.76C224.69 8.368 223.122 8.672 221.298 8.672C219.506 8.672 217.698 8.384 215.874 7.808C213.698 10.88 211.41 17.072 209.01 26.384C207.826 31.056 206.114 34.448 203.874 36.56C201.666 38.704 198.45 39.776 194.226 39.776C190.034 39.776 186.898 38.496 184.818 35.936C182.994 33.664 182.082 31.024 182.082 28.016C182.082 27.632 182.098 27.248 182.13 26.864H183.234V27.536C183.234 29.744 183.826 31.904 185.01 34.016C185.522 34.912 186.13 35.68 186.834 36.32C187.57 36.992 188.546 37.552 189.762 38C190.978 38.448 192.338 38.672 193.842 38.672C196.338 38.672 198.306 37.664 199.746 35.648C201.218 33.632 202.626 29.744 203.97 23.984C205.346 18.192 206.738 14.064 208.146 11.6C209.586 9.104 211.666 7.664 214.386 7.28C213.554 6.96 212.674 6.608 211.746 6.224C210.818 5.808 209.922 5.456 209.058 5.168C208.226 4.848 207.01 4.544 205.41 4.256C203.842 3.936 202.082 3.776 200.13 3.776C198.178 3.776 196.354 4.128 194.658 4.832C192.994 5.536 191.698 6.464 190.77 7.616C188.914 9.856 187.986 12.448 187.986 15.392C187.986 17.056 188.29 18.528 188.898 19.808C189.506 21.056 190.242 21.984 191.106 22.592C192.866 23.776 194.466 24.448 195.906 24.608L196.818 24.704L196.53 25.76C195.73 25.76 194.69 25.52 193.41 25.04C192.162 24.528 191.09 23.936 190.194 23.264ZM227.743 32.432C225.279 32.432 223.407 31.824 222.127 30.608C220.847 29.36 220.207 27.808 220.207 25.952C220.207 24.064 220.367 22.464 220.687 21.152C221.039 19.808 221.599 18.528 222.367 17.312C223.135 16.064 224.287 15.088 225.823 14.384C227.391 13.68 229.327 13.328 231.631 13.328C233.967 13.328 235.775 13.952 237.055 15.2C238.367 16.416 239.023 18.096 239.023 20.24C239.023 23.888 238.047 26.832 236.095 29.072C234.175 31.312 231.391 32.432 227.743 32.432ZM225.631 27.488C225.631 30.048 226.367 31.328 227.839 31.328C229.343 31.328 230.671 30.048 231.823 27.488C233.007 24.896 233.599 21.824 233.599 18.272C233.599 15.584 232.863 14.24 231.391 14.24C229.951 14.24 228.623 15.472 227.407 17.936C226.223 20.368 225.631 23.552 225.631 27.488ZM244.371 14.288C243.603 14.288 242.803 14.736 241.971 15.632L241.251 15.056C241.475 14.608 241.971 14.208 242.739 13.856C243.507 13.504 244.355 13.328 245.283 13.328C248.195 13.328 249.651 14.64 249.651 17.264C249.651 18.384 249.363 20.384 248.787 23.264C248.211 26.144 247.923 28.032 247.923 28.928C247.923 30.304 248.579 30.992 249.891 30.992C250.819 30.992 251.715 30.448 252.579 29.36C253.475 28.272 254.243 26.768 254.883 24.848L256.899 13.76C259.267 13.76 260.995 13.664 262.083 13.472L262.707 13.328L259.491 31.472C260.451 31.376 261.251 30.928 261.891 30.128L262.611 30.704C261.651 31.856 260.451 32.432 259.011 32.432C257.571 32.432 256.451 32.08 255.651 31.376C254.851 30.672 254.435 29.68 254.403 28.4C253.059 31.088 251.075 32.432 248.451 32.432C246.563 32.432 245.091 31.904 244.035 30.848C242.979 29.76 242.451 28.272 242.451 26.384C242.451 25.392 242.755 23.488 243.363 20.672C243.971 17.824 244.307 15.696 244.371 14.288ZM265.636 15.056C266.596 13.904 267.796 13.328 269.236 13.328C270.708 13.328 271.844 13.696 272.644 14.432C273.444 15.168 273.844 16.208 273.844 17.552V17.84C275.284 14.832 277.156 13.328 279.46 13.328C281.924 13.328 283.156 14.608 283.156 17.168C283.156 18.224 282.804 19.344 282.1 20.528C281.396 21.712 280.692 22.848 279.988 23.936C279.284 24.992 278.932 25.936 278.932 26.768H277.78C277.78 25.584 278.468 23.984 279.844 21.968C281.22 19.952 281.908 18.4 281.908 17.312C281.908 16.192 281.684 15.44 281.236 15.056C280.82 14.64 280.18 14.432 279.316 14.432C278.484 14.432 277.652 14.8 276.82 15.536C276.02 16.272 275.348 17.2 274.804 18.32C273.94 19.984 273.364 21.344 273.076 22.4V22.448L271.348 32H265.588L268.756 14.288C267.796 14.384 266.996 14.832 266.356 15.632L265.636 15.056Z" fill="white"/>
</svg>
